<svg xmlns="http://www.w3.org/2000/svg" xmlns:xlink="http://www.w3.org/1999/xlink" width="41.126" height="41.466" viewBox="0 0 41.126 41.466"><defs><style>.a{fill:#fff;}.b{fill:#ffae54;fill-rule:evenodd;}.c,.d{stroke:#ac562a;stroke-width:1.072px;}.c{fill:url(#a);}.d,.e{fill:#ac562a;}</style><radialGradient id="a" cx="0.499" cy="0.501" r="0.519" gradientTransform="matrix(0, 1, 0.998, 0, -35.681, 35.731)" gradientUnits="objectBoundingBox"><stop offset="0.333" stop-color="#f7b450"/><stop offset="0.648" stop-color="#ffc977"/><stop offset="1" stop-color="#f90"/></radialGradient></defs><g transform="translate(0.058 0.036)"><path class="a" d="M26.87,19.716a.556.556,0,0,1,.728.437l.582,2.183a.6.6,0,1,1-1.164.291l-.582-2.183A.491.491,0,0,1,26.87,19.716ZM10.13,3.413c-.146-.291-.146-.728.146-.873l1.892-1.31c.291-.146.728-.146.873.146A.862.862,0,0,1,12.9,2.394L11,3.7C10.712,3.7,10.275,3.7,10.13,3.413Z" transform="translate(4.33 0.289)"/><path class="b" d="M18.85,8.059A8.778,8.778,0,0,0,12.3,9.224a8.29,8.29,0,0,1,8.588,2.038,8.615,8.615,0,0,1,0,11.936,8,8,0,0,1-1.31,1.019,7.537,7.537,0,0,0,3.2-2.038,8.6,8.6,0,0,0,2.038-8.588A11.028,11.028,0,0,1,18.85,8.059Z" transform="translate(5.362 3.358)"/><path class="c" d="M38.041,30.34h0a19.819,19.819,0,0,1-27.075,8.006A20.244,20.244,0,0,1,2.96,10.98,19.986,19.986,0,0,1,19.7.5a2.2,2.2,0,0,1,2.038,1.31,5.758,5.758,0,0,1,.582,3.2v1.31a13.252,13.252,0,0,0,1.456,5.822,9.059,9.059,0,0,0-11.208,4.221,9.275,9.275,0,0,0,3.639,12.518,9.105,9.105,0,0,0,12.373-3.639h0a9.319,9.319,0,0,0,.437-7.86,12.516,12.516,0,0,0,5.677,1.31,13.216,13.216,0,0,0,3.348-.437,2.369,2.369,0,0,1,1.747.146c.437.291.728.582.728,1.019A22.59,22.59,0,0,1,38.041,30.34Z" transform="translate(0 0)"/><path class="d" d="M29.58,26.41l.728-.291h0c.582,1.456-.146,2.766-.582,3.785v.146a3.779,3.779,0,0,0-.582,1.456,4.1,4.1,0,0,0,0,1.892,1.664,1.664,0,0,0,1.164,1.019,2.577,2.577,0,0,0,2.038-.582,20.256,20.256,0,0,0,4.8-14.265,1.484,1.484,0,0,0-.728-1.165,2.369,2.369,0,0,0-1.747-.146,12.124,12.124,0,0,1-3.2.437A11.006,11.006,0,0,1,25.8,17.24a9.514,9.514,0,0,1-.291,7.715,5.107,5.107,0,0,1-.728,1.164A6.547,6.547,0,0,0,26.814,25.1C27.833,24.372,29.143,25.1,29.58,26.41Zm0,0c.437,1.164-.146,2.183-.582,3.2a8.9,8.9,0,0,0-.728,1.747ZM15.606,11.563h0a6.488,6.488,0,0,1-4.8-.291A6.288,6.288,0,0,1,8.182,8.36a5.833,5.833,0,0,1-.437-3.785A3.571,3.571,0,0,1,9.492,2.1,20.194,20.194,0,0,1,17.062.5a2.054,2.054,0,0,1,1.747,1.164,4.043,4.043,0,0,1,.437,2.62A8.951,8.951,0,0,0,19.1,6.322a13.252,13.252,0,0,0,1.456,5.822A8.367,8.367,0,0,0,15.606,11.563Z" transform="translate(3.221)"/><circle class="e" cx="1.019" cy="1.019" r="1.019" transform="translate(4.271 15.056)"/><circle class="e" cx="1.019" cy="1.019" r="1.019" transform="translate(19.409 33.252)"/><circle class="e" cx="1.747" cy="1.747" r="1.747" transform="translate(12.276 33.397)"/></g></svg>