<svg xmlns="http://www.w3.org/2000/svg" width="40.082" height="40.089" viewBox="0 0 40.082 40.089"><defs><style>.a{fill:#f3ba2f;}</style></defs><path class="a" d="M190.408,136.908l6.982,6.983a.643.643,0,0,0,.909,0l3.68-3.681a.643.643,0,0,0,0-.909l-11.572-11.574a.643.643,0,0,0-.909,0L177.932,139.3a.643.643,0,0,0,0,.909l3.68,3.681a.643.643,0,0,0,.909,0l6.978-6.979A.643.643,0,0,1,190.408,136.908Z" transform="translate(-169.913 -127.539)"/><path class="a" d="M131.43,228.474l-3.68,3.681a.643.643,0,0,0,0,.909l3.68,3.681a.643.643,0,0,0,.909,0l3.68-3.681a.643.643,0,0,0,0-.909l-3.68-3.681A.643.643,0,0,0,131.43,228.474Z" transform="translate(-127.561 -212.565)"/><path class="a" d="M190.376,294.806,201.95,283.23a.643.643,0,0,0,0-.91l-3.682-3.679a.643.643,0,0,0-.909,0l-6.982,6.983a.643.643,0,0,1-.909,0l-6.979-6.98a.643.643,0,0,0-.909,0l-3.686,3.676a.643.643,0,0,0,0,.91l11.573,11.575A.643.643,0,0,0,190.376,294.806Z" transform="translate(-169.881 -254.905)"/><path class="a" d="M332.895,228.488l-3.68,3.681a.643.643,0,0,0,0,.909l3.68,3.681a.643.643,0,0,0,.909,0l3.68-3.681a.643.643,0,0,0,0-.909l-3.68-3.681A.643.643,0,0,0,332.895,228.488Z" transform="translate(-297.591 -212.577)"/><path class="a" d="M236.443,231.78l-3.75-3.751a.643.643,0,0,0-.909,0l-3.75,3.751a.643.643,0,0,0,0,.909l3.75,3.751a.643.643,0,0,0,.909,0l3.75-3.751A.643.643,0,0,0,236.443,231.78Z" transform="translate(-212.197 -212.19)"/></svg>