<svg xmlns="http://www.w3.org/2000/svg" xmlns:xlink="http://www.w3.org/1999/xlink" width="91.554" height="84.28" viewBox="0 0 91.554 84.28"><defs><style>.a{fill:#da001a;}.b{fill:url(#a);}</style><linearGradient id="a" y1="0.5" x2="1" y2="0.5" gradientUnits="objectBoundingBox"><stop offset="0" stop-color="#f88325"/><stop offset="1" stop-color="#c42f34"/></linearGradient></defs><g transform="translate(-95.228 -157.02)"><g transform="translate(95.228 161.269)"><path class="a" d="M156.23,183.482h12.662L148.565,217.8l-20.181-34.32h12.2L102.39,166.839l46.175,80.032L193.944,167.9ZM148.556,237.2l-33.017-57.219,7.83,4.5L148.551,227.3l26.756-45.171,6.734-3.21Z" transform="translate(-102.39 -166.839)"/></g><g transform="translate(102.74 157.02)"><path class="b" d="M142.2,265.638l4.881,7.248a38.516,38.516,0,0,1-26.572-44.455l4.106,6.1c-.022.5-.035,1-.035,1.514A33.7,33.7,0,0,0,142.2,265.638Z" transform="translate(-119.75 -197.531)"/><path class="b" d="M195.712,167.651a33.593,33.593,0,0,0-38.1.247l-5.119-2.181a38.4,38.4,0,0,1,48.358-.255Z" transform="translate(-138.324 -157.02)"/><path class="b" d="M260.366,235.559a38.574,38.574,0,0,1-28.506,37.182l4.6-6.837a33.726,33.726,0,0,0,19.073-30.345c0-.658-.022-1.311-.061-1.96l4.054-6.019A38.483,38.483,0,0,1,260.366,235.559Z" transform="translate(-183.35 -197.049)"/></g></g></svg>