<svg xmlns="http://www.w3.org/2000/svg" width="30.064" height="27.676" viewBox="0 0 30.064 27.676"><defs><style>.a{fill:#fff;}</style></defs><g transform="translate(-95.228 -157.02)"><g transform="translate(95.228 158.415)"><path class="a" d="M120.07,172.3h4.158l-6.675,11.27-6.627-11.27h4.005l-12.541-5.465,15.163,26.28,14.9-25.933Zm-2.52,17.639-10.842-18.789,2.571,1.479,8.269,14.061,8.786-14.833,2.211-1.054Z" transform="translate(-102.39 -166.839)"/></g><g transform="translate(97.695 157.02)"><path class="a" d="M127.121,240.648l1.6,2.38A12.648,12.648,0,0,1,120,228.43l1.348,2c-.007.165-.011.33-.011.5A11.067,11.067,0,0,0,127.121,240.648Z" transform="translate(-119.75 -218.284)"/><path class="a" d="M166.683,160.511a11.031,11.031,0,0,0-12.512.081l-1.681-.716a12.609,12.609,0,0,1,15.88-.084Z" transform="translate(-147.838 -157.02)"/><path class="a" d="M241.221,230.2a12.667,12.667,0,0,1-9.361,12.21l1.512-2.245a11.075,11.075,0,0,0,6.263-9.965c0-.216-.007-.431-.02-.644l1.331-1.976A12.637,12.637,0,0,1,241.221,230.2Z" transform="translate(-215.931 -217.554)"/></g></g></svg>