<svg xmlns="http://www.w3.org/2000/svg" width="28.916" height="36.475" viewBox="0 0 28.916 36.475"><path class="a" d="M27.492,25.148a1.425,1.425,0,0,0,1.425-1.425V9.261a5.706,5.706,0,0,0-5.7-5.7H18.729V1.425A1.425,1.425,0,0,0,17.3,0H11.6A1.425,1.425,0,0,0,10.18,1.425V3.562H5.7A5.706,5.706,0,0,0,0,9.261V30.776a5.706,5.706,0,0,0,5.7,5.7H23.217a5.706,5.706,0,0,0,5.7-5.7,1.425,1.425,0,1,0-2.85,0,2.853,2.853,0,0,1-2.85,2.85H5.7a2.853,2.853,0,0,1-2.85-2.85V9.261A2.853,2.853,0,0,1,5.7,6.412h4.48v.712a4.274,4.274,0,1,0,8.549,0V6.412h4.488a2.853,2.853,0,0,1,2.85,2.85V23.723A1.425,1.425,0,0,0,27.492,25.148ZM15.879,7.124a1.425,1.425,0,1,1-2.85,0V2.85h2.85Zm6.227,9.092a1.425,1.425,0,0,1,.358,1.983l-6.339,9.133c-.019.027-.039.054-.06.08a3.672,3.672,0,0,1-2.612,1.361c-.081.005-.162.008-.242.008a3.673,3.673,0,0,1-2.527-1.01l-.02-.019L6.9,24.028A1.425,1.425,0,1,1,8.9,22l3.754,3.713a.814.814,0,0,0,1.163-.058l6.3-9.082a1.425,1.425,0,0,1,1.983-.358Zm0,0" transform="translate(0)"/></svg>