<svg xmlns="http://www.w3.org/2000/svg" width="36.475" height="36.475" viewBox="0 0 36.475 36.475"><path d="M18.238,0A18.238,18.238,0,1,0,36.475,18.238,18.227,18.227,0,0,0,18.238,0Zm0,33.626A15.388,15.388,0,1,1,33.626,18.238,15.379,15.379,0,0,1,18.238,33.626Z"/><g transform="translate(16.813 9.181)"><path d="M237.425,128.877A1.425,1.425,0,0,0,236,130.3v9.175a1.425,1.425,0,1,0,2.85,0V130.3A1.425,1.425,0,0,0,237.425,128.877Z" transform="translate(-236 -128.877)"/></g><g transform="translate(16.314 22.951)"><circle cx="1.924" cy="1.924" r="1.924"/></g></svg>