<svg xmlns="http://www.w3.org/2000/svg" width="26.527" height="34.825" viewBox="0 0 26.527 34.825"><g transform="translate(-61)"><path d="M79.3,10.2a2.383,2.383,0,0,1-2.381-2.381V0H64.741A3.745,3.745,0,0,0,61,3.741V31.084a3.745,3.745,0,0,0,3.741,3.741H83.786a3.745,3.745,0,0,0,3.741-3.741V10.2ZM66.577,24.486h4.946a1.02,1.02,0,1,1,0,2.041H66.577a1.02,1.02,0,0,1,0-2.041Zm-1.02-4.421a1.02,1.02,0,0,1,1.02-1.02H81.541a1.02,1.02,0,1,1,0,2.041H66.577A1.02,1.02,0,0,1,65.557,20.065ZM81.541,13.6a1.02,1.02,0,1,1,0,2.041H66.577a1.02,1.02,0,0,1,0-2.041Z"/><path d="M325,13.62a.34.34,0,0,0,.34.34h7.775a3.732,3.732,0,0,0-.715-.934l-6.558-6.2a3.75,3.75,0,0,0-.842-.6v7.4Z" transform="translate(-246.044 -5.798)"/></g></svg>