<svg xmlns="http://www.w3.org/2000/svg" width="37.195" height="24.637" viewBox="0 0 37.195 24.637"><path class="a" d="M33.869,13.409c-4.913-8.071-12.313-2.456-12.313-2.456a3.836,3.836,0,0,1-1.966.662H17.607a3.81,3.81,0,0,1-1.966-.66S8.24,5.34,3.326,13.411A24.9,24.9,0,0,0,.394,30.267c.347,2.152,1.49,3.587,3.647,3.407S10.86,27.88,10.86,27.88a2.661,2.661,0,0,1,1.794-.841l11.884,0a2.656,2.656,0,0,1,1.793.841S31,33.492,33.155,33.672s3.3-1.257,3.645-3.407A24.9,24.9,0,0,0,33.869,13.409Zm-19.738,6.57H11.583v2.456a2.375,2.375,0,0,1-1.375.4A1.66,1.66,0,0,1,9,22.387V19.98H6.59a1.935,1.935,0,0,1-.381-1.119,2.567,2.567,0,0,1,.332-1.466H9.091V14.846a2.77,2.77,0,0,1,1.278-.259,3.37,3.37,0,0,1,1.307.307l-.01,2.5h2.407a2.4,2.4,0,0,1,.455,1.192A3.01,3.01,0,0,1,14.131,19.979Zm11.689,2.8a2.017,2.017,0,1,1,2.018-2.017A2.014,2.014,0,0,1,25.82,22.778Zm0-5.55a2.017,2.017,0,1,1,2.018-2.016A2.013,2.013,0,0,1,25.82,17.229Zm5.023,2.979a2.017,2.017,0,1,1,2.018-2.017A2.014,2.014,0,0,1,30.843,20.208Z" transform="translate(0 -9.052)"/></svg>