<svg xmlns="http://www.w3.org/2000/svg" width="32" height="32" viewBox="0 0 32 32"><path class="a" d="M16,32A16,16,0,0,1,4.686,4.685a15.99,15.99,0,0,1,24.6,20.2,1.25,1.25,0,0,1-2.078-1.389,13.409,13.409,0,1,0-4.227,4.063,1.25,1.25,0,1,1,1.3,2.138A15.974,15.974,0,0,1,16,32ZM8.5,20.249V11.5a1.25,1.25,0,0,0-2.5,0v8.75a1.25,1.25,0,1,0,2.5,0Zm18.625-2.917V14.416a4.188,4.188,0,0,0-8.375,0v2.917a4.188,4.188,0,0,0,8.375,0Zm-2.5-2.916v2.917a1.688,1.688,0,0,1-3.375,0V14.416a1.688,1.688,0,0,1,3.375,0Zm-7.312,4.2a1.25,1.25,0,0,0-2.5,0,.43.43,0,0,1-.468.383h-.981a.761.761,0,0,1-.8-.753V13.5a.761.761,0,0,1,.8-.753h.981a.43.43,0,0,1,.468.383,1.25,1.25,0,0,0,2.5,0,2.93,2.93,0,0,0-2.968-2.883h-.981a3.312,3.312,0,0,0-2.322.931,3.206,3.206,0,0,0-.979,2.322v4.745a3.206,3.206,0,0,0,.979,2.322,3.312,3.312,0,0,0,2.322.931h.981a2.93,2.93,0,0,0,2.968-2.883Zm0,0" transform="translate(0.001 0.001)"/></svg>