<svg xmlns="http://www.w3.org/2000/svg" width="81.013" height="61.711" viewBox="0 0 81.013 61.711"><defs><style>.a{fill:#fff;}</style></defs><path class="a" d="M78.639,390.99H2.374A2.373,2.373,0,0,0,0,393.363v2.374a4.747,4.747,0,0,0,4.747,4.747H76.266a4.747,4.747,0,0,0,4.747-4.747v-2.374A2.373,2.373,0,0,0,78.639,390.99Z" transform="translate(0 -338.773)"/><path class="a" d="M30,63.364v45.1h71.519v-45.1a2.372,2.372,0,0,0-2.374-2.374H32.374A2.372,2.372,0,0,0,30,63.364Zm38.827,8.8a2.373,2.373,0,0,1,3.356-3.356l4.747,4.747a2.373,2.373,0,0,1,0,3.356l-4.747,4.747A2.373,2.373,0,0,1,68.827,78.3L71.9,75.231ZM54.14,78.917l4.747-9.494a2.374,2.374,0,1,1,4.246,2.123L58.387,81.04a2.374,2.374,0,0,1-4.246-2.123ZM56.264,87.1H89.493a2.374,2.374,0,0,1,0,4.747H56.264a2.374,2.374,0,1,1,0-4.747Zm0,9.494H89.493a2.374,2.374,0,0,1,0,4.747H56.264a2.374,2.374,0,0,1,0-4.747ZM40.344,73.553l4.747-4.747a2.373,2.373,0,0,1,3.356,3.356l-3.069,3.069L48.448,78.3a2.373,2.373,0,0,1-3.356,3.356l-4.747-4.747A2.373,2.373,0,0,1,40.344,73.553ZM42.022,87.1H46.77a2.374,2.374,0,0,1,0,4.747H42.022a2.374,2.374,0,1,1,0-4.747Zm0,9.494H46.77a2.374,2.374,0,0,1,0,4.747H42.022a2.374,2.374,0,1,1,0-4.747Z" transform="translate(-25.253 -60.99)"/></svg>