<svg xmlns="http://www.w3.org/2000/svg" width="39.103" height="27.649" viewBox="0 0 39.103 27.649"><defs></defs><g transform="translate(0 -60.99)"><path class="a" d="M37.958,390.99H1.146A1.13,1.13,0,0,0,0,392.1v1.113a2.26,2.26,0,0,0,2.291,2.226H36.812a2.26,2.26,0,0,0,2.291-2.226V392.1A1.13,1.13,0,0,0,37.958,390.99Z" transform="translate(0 -306.803)"/><path class="a" d="M30,62.1V83.253H64.651V62.1A1.131,1.131,0,0,0,63.5,60.99H31.15A1.131,1.131,0,0,0,30,62.1Zm18.811,4.126a1.088,1.088,0,0,1,0-1.574,1.177,1.177,0,0,1,1.626,0l2.3,2.226a1.088,1.088,0,0,1,0,1.574l-2.3,2.226a1.177,1.177,0,0,1-1.626,0,1.088,1.088,0,0,1,0-1.574L50.3,67.669ZM41.7,69.4,44,64.945a1.172,1.172,0,0,1,1.543-.5,1.1,1.1,0,0,1,.514,1.494l-2.3,4.453a1.169,1.169,0,0,1-1.543.5A1.1,1.1,0,0,1,41.7,69.4Zm1.029,3.837h16.1a1.114,1.114,0,1,1,0,2.226h-16.1a1.114,1.114,0,1,1,0-2.226Zm0,4.452h16.1a1.114,1.114,0,1,1,0,2.226h-16.1a1.114,1.114,0,1,1,0-2.226ZM35.012,66.882l2.3-2.226a1.177,1.177,0,0,1,1.626,0,1.088,1.088,0,0,1,0,1.574l-1.487,1.439,1.487,1.439a1.088,1.088,0,0,1,0,1.574,1.177,1.177,0,0,1-1.626,0l-2.3-2.226A1.088,1.088,0,0,1,35.012,66.882Zm.813,6.353h2.3a1.114,1.114,0,1,1,0,2.226h-2.3a1.114,1.114,0,1,1,0-2.226Zm0,4.452h2.3a1.114,1.114,0,1,1,0,2.226h-2.3a1.114,1.114,0,1,1,0-2.226Z" transform="translate(-27.774 0)"/></g></svg>