<svg xmlns="http://www.w3.org/2000/svg" width="34.133" height="30.881" viewBox="0 0 34.133 30.881"><defs></defs><g transform="translate(0.001 -15.004)"><path class="a" d="M11.377,24.756c6.512,0,11.377-2.574,11.377-4.876S17.888,15,11.377,15,0,17.578,0,19.88,4.865,24.756,11.377,24.756Z" transform="translate(-0.001)"/><path class="a" d="M11.377,234.176a23.819,23.819,0,0,0,2.735-.156,13.017,13.017,0,0,1-1.794-3.112c-.312.011-.626.018-.941.018a22.691,22.691,0,0,1-9.921-2.076A12.881,12.881,0,0,1,0,228v1.3C0,231.6,4.865,234.176,11.377,234.176Z" transform="translate(-0.001 -189.917)"/><path class="a" d="M11.376,174.185h.1a13.073,13.073,0,0,1,0-3.251h-.1a22.692,22.692,0,0,1-9.921-2.076A12.891,12.891,0,0,1,0,168.013v1.3C0,171.611,4.865,174.185,11.376,174.185Z" transform="translate(0 -136.427)"/><path class="a" d="M11.376,114.193q.484,0,.955-.019a13.022,13.022,0,0,1,2.035-3.4,27.317,27.317,0,0,1-2.99.164,22.692,22.692,0,0,1-9.921-2.076A12.889,12.889,0,0,1,0,108.021v1.3C0,111.619,4.865,114.193,11.376,114.193Z" transform="translate(0 -82.937)"/><path class="a" d="M136.592,124.327a9.716,9.716,0,0,0-1.627,5.388,9.8,9.8,0,0,0,.1,1.391,9.677,9.677,0,0,0,1.015,3.133,9.757,9.757,0,1,0,.512-9.912Z" transform="translate(-120.34 -93.583)"/></g></svg>