<svg xmlns="http://www.w3.org/2000/svg" width="68.21" height="61.711" viewBox="0 0 68.21 61.711"><defs><style>.a{fill:#fff;}</style></defs><path class="a" d="M22.735,34.491c13.012,0,22.735-5.144,22.735-9.744S35.747,15,22.735,15,0,20.148,0,24.747,9.723,34.491,22.735,34.491Z" transform="translate(0 -15.004)"/><path class="a" d="M22.735,240.339a47.6,47.6,0,0,0,5.466-.312,26.012,26.012,0,0,1-3.586-6.219c-.624.021-1.25.036-1.88.036-7.435,0-14.477-1.473-19.826-4.148A25.741,25.741,0,0,1,0,228V230.6C0,235.195,9.723,240.339,22.735,240.339Z" transform="translate(0 -181.876)"/><path class="a" d="M22.734,180.348h.2a26.126,26.126,0,0,1,0-6.5l-.2,0c-7.435,0-14.476-1.473-19.826-4.148A25.756,25.756,0,0,1,0,168.013V170.6C0,175.2,9.722,180.348,22.734,180.348Z" transform="translate(0.001 -134.877)"/><path class="a" d="M22.734,120.356q.967,0,1.908-.038a26.022,26.022,0,0,1,4.066-6.785,54.593,54.593,0,0,1-5.975.328c-7.435,0-14.476-1.473-19.826-4.148A25.76,25.76,0,0,1,0,108.021v2.591C0,115.212,9.722,120.356,22.734,120.356Z" transform="translate(0.001 -87.877)"/><path class="a" d="M138.217,128.685a19.45,19.45,0,0,0-1.024,19.808,19.5,19.5,0,1,0,1.024-19.808Z" transform="translate(-105.736 -97.231)"/></svg>