<svg xmlns="http://www.w3.org/2000/svg" width="58.564" height="54.144" viewBox="0 0 58.564 54.144"><defs><style>.a{fill:#fff;}</style></defs><path class="a" d="M10.6,41.817a1.831,1.831,0,0,0,2.587,0l2.367-2.367a1.831,1.831,0,0,0,0-2.587L13.189,34.5H45.753a5.5,5.5,0,0,1,5.49,5.49,2.749,2.749,0,0,0,2.745,2.745h1.83a2.749,2.749,0,0,0,2.745-2.745A12.825,12.825,0,0,0,45.753,27.176H13.189l2.367-2.367a1.831,1.831,0,0,0,0-2.587l-2.367-2.367a1.831,1.831,0,0,0-2.587,0L.268,30.189a.917.917,0,0,0,0,1.295Z" transform="translate(0 -19.32)"/><path class="a" d="M47.962,288.915a1.831,1.831,0,0,0-2.587,0l-2.367,2.367a1.827,1.827,0,0,0,0,2.587l2.367,2.367H12.811a5.5,5.5,0,0,1-5.49-5.49A2.749,2.749,0,0,0,4.575,288H2.745A2.749,2.749,0,0,0,0,290.745a12.825,12.825,0,0,0,12.811,12.811H45.375l-2.367,2.367a1.827,1.827,0,0,0,0,2.587l2.367,2.367a1.831,1.831,0,0,0,2.587,0L58.3,300.543a.917.917,0,0,0,0-1.295Z" transform="translate(0 -257.268)"/></svg>