<svg xmlns="http://www.w3.org/2000/svg" width="34.133" height="31.557" viewBox="0 0 34.133 31.557"><defs><style>.a{fill:#333;}</style></defs><g transform="translate(0 -19.32)"><path class="a" d="M6.179,32.432a1.067,1.067,0,0,0,1.508,0l1.379-1.379a1.067,1.067,0,0,0,0-1.508L7.687,28.165H26.667a3.2,3.2,0,0,1,3.2,3.2,1.6,1.6,0,0,0,1.6,1.6h1.067a1.6,1.6,0,0,0,1.6-1.6A7.475,7.475,0,0,0,26.667,23.9H7.687l1.379-1.379a1.067,1.067,0,0,0,0-1.508L7.687,19.632a1.067,1.067,0,0,0-1.508,0L.156,25.655a.534.534,0,0,0,0,.755Z"/><path class="a" d="M27.954,288.533a1.067,1.067,0,0,0-1.508,0l-1.379,1.379a1.065,1.065,0,0,0,0,1.508l1.379,1.379H7.467a3.2,3.2,0,0,1-3.2-3.2,1.6,1.6,0,0,0-1.6-1.6H1.6A1.6,1.6,0,0,0,0,289.6a7.475,7.475,0,0,0,7.467,7.467H26.446l-1.379,1.379a1.065,1.065,0,0,0,0,1.508l1.379,1.379a1.067,1.067,0,0,0,1.508,0l6.023-6.023a.534.534,0,0,0,0-.755Z" transform="translate(0 -250.768)"/></g></svg>