<?xml version="1.0" encoding="utf-8"?>
<!-- Generator: Adobe Illustrator 24.0.2, SVG Export Plug-In . SVG Version: 6.00 Build 0)  -->
<svg version="1.1" id="Layer_1" xmlns="http://www.w3.org/2000/svg" xmlns:xlink="http://www.w3.org/1999/xlink" x="0px" y="0px"
	 viewBox="0 0 773.2 721.6" style="enable-background:new 0 0 773.2 721.6;" xml:space="preserve">
<style type="text/css">
	.st0{fill:none;stroke:#707070;}
	.st1{fill:url(#SVGID_1_);}
	.st2{fill:url(#SVGID_2_);}
	.st3{fill:#DA001A;}
	.st4{fill:url(#SVGID_3_);}
	.st5{fill:url(#SVGID_4_);}
	.st6{fill:url(#SVGID_5_);}
	.st7{fill:#FFFFFF;}
	.st8{fill:url(#SVGID_6_);}
	.st9{fill:url(#SVGID_7_);}
	.st10{fill:#F0F2F5;}
	.st11{fill:url(#SVGID_8_);}
	.st12{fill:url(#SVGID_9_);}
	.st13{opacity:0.74;fill:#FDFFFF;enable-background:new    ;}
	.st14{opacity:0.52;fill:#FDFFFF;enable-background:new    ;}
	.st15{fill:#FDFFFF;}
	.st16{fill:url(#SVGID_10_);}
	.st17{fill:url(#SVGID_11_);}
	.st18{fill:url(#SVGID_12_);}
	.st19{fill:url(#SVGID_13_);}
	.st20{fill:url(#SVGID_14_);}
	.st21{fill:url(#SVGID_15_);}
	.st22{fill:url(#SVGID_16_);}
	.st23{fill:url(#SVGID_17_);}
</style>
<g transform="translate(-509.375 -2121)">
	<path class="st0" d="M1231.4,2480c0,198-161.5,358.5-360.8,358.5c-199.3,0-360.8-160.5-360.8-358.5s161.5-358.5,360.8-358.5
		C1069.9,2121.5,1231.4,2282,1231.4,2480z"/>
	<path class="st0" d="M1029.8,2480.3c0,87.3-71.2,158.1-159.1,158.1s-159.1-70.8-159.1-158.1s71.2-158.1,159.1-158.1
		S1029.8,2392.9,1029.8,2480.3z"/>
	<g transform="translate(735.763 2346.378)">
		<g transform="translate(0 0)">
			
				<linearGradient id="SVGID_1_" gradientUnits="userSpaceOnUse" x1="-796.2578" y1="675.455" x2="-795.2578" y2="675.455" gradientTransform="matrix(268.521 0 0 -266.856 213811.9375 180382.6562)">
				<stop  offset="0" style="stop-color:#848484"/>
				<stop  offset="0" style="stop-color:#4E4E4E"/>
				<stop  offset="1" style="stop-color:#000000"/>
			</linearGradient>
			<path class="st1" d="M268.5,133.4c0,73.7-60.1,133.4-134.3,133.4S0,207.1,0,133.4S60.1,0,134.3,0S268.5,59.7,268.5,133.4z"/>
			
				<linearGradient id="SVGID_2_" gradientUnits="userSpaceOnUse" x1="-795.3757" y1="675.176" x2="-794.3757" y2="675.176" gradientTransform="matrix(189.8911 0 0 -188.145 151074.0469 127164.4141)">
				<stop  offset="0" style="stop-color:#000000"/>
				<stop  offset="1" style="stop-color:#4E4E4E"/>
				<stop  offset="1" style="stop-color:#EDCEB6"/>
			</linearGradient>
			<path class="st2" d="M229.2,133.4c0,52-42.5,94.1-94.9,94.1s-95-42.1-95-94.1s42.5-94.1,95-94.1
				C186.7,39.4,229.2,81.5,229.2,133.4z"/>
		</g>
		<g transform="translate(78.526 82.121)">
			<g transform="translate(0 5.173)">
				<path class="st3" d="M65.6,20.3H81L56.2,62.1L31.6,20.3h14.9L0,0l56.2,97.4l55.2-96.2L65.6,20.3z M56.2,85.7L16,16l9.5,5.5
					l30.7,52.1l32.6-55l8.2-3.9L56.2,85.7z"/>
			</g>
			<g transform="translate(9.146)">
				
					<linearGradient id="SVGID_3_" gradientUnits="userSpaceOnUse" x1="-868.8729" y1="590.7125" x2="-867.8729" y2="590.7125" gradientTransform="matrix(33.2807 0 0 -54.126 28916.7188 32037.5879)">
					<stop  offset="0" style="stop-color:#F88325"/>
					<stop  offset="1" style="stop-color:#C42F34"/>
				</linearGradient>
				<path class="st4" d="M27.3,82.9l5.9,8.8c-23.1-7-37.1-30.4-32.4-54.1l5,7.4c0,0.6,0,1.2,0,1.8C5.9,61.9,14.1,75.7,27.3,82.9z"/>
				
					<linearGradient id="SVGID_4_" gradientUnits="userSpaceOnUse" x1="-876.345" y1="580.5613" x2="-875.345" y2="580.5613" gradientTransform="matrix(58.878 0 0 -13.2443 51614.6953 7695.7461)">
					<stop  offset="0" style="stop-color:#F88325"/>
					<stop  offset="1" style="stop-color:#C42F34"/>
				</linearGradient>
				<path class="st5" d="M69.9,12.9c-14-9.5-32.5-9.4-46.4,0.3l-6.2-2.7c17.1-14,41.6-14.1,58.9-0.3L69.9,12.9z"/>
				
					<linearGradient id="SVGID_5_" gradientUnits="userSpaceOnUse" x1="-869.5792" y1="590.7638" x2="-868.5792" y2="590.7638" gradientTransform="matrix(34.707 0 0 -54.985 30239.5469 32547.8145)">
					<stop  offset="0" style="stop-color:#F88325"/>
					<stop  offset="1" style="stop-color:#C42F34"/>
				</linearGradient>
				<path class="st6" d="M93.8,46.9c0,21.2-14.2,39.7-34.7,45.3l5.6-8.3C78.9,77,87.9,62.6,87.9,46.9c0-0.8,0-1.6-0.1-2.4l4.9-7.3
					C93.4,40.4,93.8,43.6,93.8,46.9z"/>
			</g>
		</g>
	</g>
	<path class="st0" d="M1132.5,2479.7c0,144.3-117.7,261.2-262.8,261.2c-145.2,0-262.8-116.9-262.8-261.2
		c0-144.3,117.7-261.2,262.8-261.2C1014.9,2218.5,1132.5,2335.5,1132.5,2479.7z"/>
	<g transform="translate(555.861 2462.607)">
		<ellipse class="st7" cx="51" cy="51" rx="51" ry="51"/>
		<ellipse class="st0" cx="51" cy="51" rx="50.5" ry="50.5"/>
	</g>
	<g transform="translate(978.329 2222.063)">
		<ellipse class="st7" cx="51" cy="51" rx="51" ry="51"/>
		<ellipse class="st0" cx="51" cy="51" rx="50.5" ry="50.5"/>
	</g>
	<g transform="translate(927.794 2660.701)">
		<ellipse class="st7" cx="51" cy="51" rx="51" ry="51"/>
		<ellipse class="st0" cx="51" cy="51" rx="50.5" ry="50.5"/>
	</g>
	<g transform="translate(587.193 2152.326)">
		<ellipse class="st7" cx="51" cy="51" rx="51" ry="51"/>
		<ellipse class="st0" cx="51" cy="51" rx="50.5" ry="50.5"/>
	</g>
	<g transform="translate(638.738 2740.545)">
		<ellipse class="st7" cx="51" cy="51" rx="51" ry="51"/>
		<ellipse class="st0" cx="51" cy="51" rx="50.5" ry="50.5"/>
	</g>
	<g transform="translate(1180.466 2439.361)">
		<ellipse class="st7" cx="51" cy="51" rx="51" ry="51"/>
		<ellipse class="st0" cx="51" cy="51" rx="50.5" ry="50.5"/>
	</g>
	<g transform="translate(559.904 2466.649)">
		
			<linearGradient id="SVGID_6_" gradientUnits="userSpaceOnUse" x1="-616.4439" y1="553.9575" x2="-615.4439" y2="553.9575" gradientTransform="matrix(94 0 0 -94 57945.7188 52118.9961)">
			<stop  offset="0" style="stop-color:#EDCEB6"/>
			<stop  offset="1" style="stop-color:#E7A977"/>
		</linearGradient>
		<path class="st8" d="M94,47c0,26-21,47-47,47S0,73,0,47S21,0,47,0S94,21,94,47z"/>
		
			<linearGradient id="SVGID_7_" gradientUnits="userSpaceOnUse" x1="-614.5038" y1="553.3538" x2="-613.5038" y2="553.3538" gradientTransform="matrix(71.276 0 0 -71.276 43810.7344 39487.8398)">
			<stop  offset="0" style="stop-color:#E7A977"/>
			<stop  offset="1" style="stop-color:#EDCEB6"/>
		</linearGradient>
		<path class="st9" d="M82.6,47c0,19.7-16,35.6-35.6,35.6S11.4,66.7,11.4,47s16-35.6,35.6-35.6c0,0,0,0,0,0
			C66.7,11.4,82.6,27.3,82.6,47z"/>
		<path class="st10" d="M64.3,50.2c-1.3-1.6-3.1-2.8-5.1-3.3c3.1-1.4,5.1-4.5,5.1-7.9c0-1.5-0.4-3-1.1-4.2c-0.7-1.2-1.6-2.2-2.8-3
			c-1.1-0.8-2.4-1.3-3.8-1.5c-0.6-0.1-1.4-0.2-2.2-0.2v-6.4h-4.8v6.3h-4v-6.3h-4.8v6.3h-9.1v6h4v24.2h-4v6h9.1v5.5h4.8v-5.5H48
			c0.5,0,1.1,0,1.5,0v5.5h4.8v-5.6c1.1,0,2-0.1,2.5-0.1c1.8-0.1,3.5-0.7,4.9-1.7c1.4-1,2.4-2.2,3.1-3.7c0.8-1.5,1.1-3.1,1.2-4.8
			C66.1,53.7,65.5,51.8,64.3,50.2z M53.5,36.1c1,0.1,2,0.5,2.8,1.3c0.6,0.8,1,1.7,0.9,2.7c0,1.1-0.3,2.1-1.1,2.8
			c-0.8,0.8-1.9,1.2-3,1.3c-0.7,0.1-2.5,0.1-5.3,0.1H43V36h4.2C50.7,36,52.7,36,53.5,36.1z M57.5,58.4c-0.7,0.8-1.6,1.3-2.7,1.4
			c-1.7,0.2-3.3,0.3-5,0.2H43v-9.7h5.9c2.2-0.1,4.4,0.1,6.5,0.5c0.9,0.3,1.7,0.9,2.3,1.7c0.5,0.8,0.8,1.8,0.8,2.8
			C58.5,56.5,58.2,57.6,57.5,58.4L57.5,58.4z"/>
	</g>
	<g transform="translate(931.836 2664.744)">
		
			<linearGradient id="SVGID_8_" gradientUnits="userSpaceOnUse" x1="-988.3759" y1="355.8625" x2="-987.3759" y2="355.8625" gradientTransform="matrix(94 0 0 -94 92907.3281 33498.0703)">
			<stop  offset="0" style="stop-color:#808EFD"/>
			<stop  offset="1" style="stop-color:#CBD1FE"/>
		</linearGradient>
		<path class="st11" d="M94,47c0,26-21,47-47,47S0,73,0,47S21,0,47,0S94,21,94,47z"/>
		
			<linearGradient id="SVGID_9_" gradientUnits="userSpaceOnUse" x1="-986.4361" y1="355.2589" x2="-985.4361" y2="355.2589" gradientTransform="matrix(71.278 0 0 -71.278 70322.5469 25369.1367)">
			<stop  offset="0" style="stop-color:#CBD1FE"/>
			<stop  offset="1" style="stop-color:#808EFD"/>
		</linearGradient>
		<ellipse class="st12" cx="47" cy="47" rx="35.6" ry="35.6"/>
		<g transform="translate(32.237 19.559)">
			<path class="st13" d="M14.8,33.7v21.2L0,27.4L14.8,33.7z"/>
			<path class="st14" d="M29.5,27.4L14.8,54.9V33.7L29.5,27.4z"/>
			<path class="st14" d="M14.8,0v33.7L0,27.4L14.8,0z"/>
			<path class="st15" d="M29.5,27.4l-14.8,6.3V0L29.5,27.4z"/>
		</g>
	</g>
	<g transform="translate(1184.509 2443.404)">
		
			<linearGradient id="SVGID_10_" gradientUnits="userSpaceOnUse" x1="-1241.049" y1="577.2023" x2="-1240.049" y2="577.2023" gradientTransform="matrix(94 0 0 -94 116658.5938 54304.0156)">
			<stop  offset="0" style="stop-color:#E4E4E4"/>
			<stop  offset="1" style="stop-color:#7F8C8D"/>
		</linearGradient>
		<path class="st16" d="M94,47c0,26-21,47-47,47S0,73,0,47S21,0,47,0S94,21,94,47z"/>
		
			<linearGradient id="SVGID_11_" gradientUnits="userSpaceOnUse" x1="-1239.1089" y1="576.5986" x2="-1238.1089" y2="576.5986" gradientTransform="matrix(71.276 0 0 -71.276 88330.0859 41144.6406)">
			<stop  offset="0" style="stop-color:#7F8C8D"/>
			<stop  offset="1" style="stop-color:#D9D8D8"/>
		</linearGradient>
		<path class="st17" d="M82.6,47c0,19.7-16,35.6-35.6,35.6S11.4,66.7,11.4,47s16-35.6,35.6-35.6c0,0,0,0,0,0
			C66.7,11.4,82.6,27.3,82.6,47z"/>
		<g transform="translate(30.995 28.718)">
			<path class="st7" d="M1.8,34.1h31.2v-7.3H12.9l3.1-7.3h13.3v-7.3H19.1l4-9.2L16.4,0l-5.2,12.1H0v7.3h8L1.8,34.1z"/>
		</g>
	</g>
	<g transform="translate(982.371 2226.106)">
		
			<linearGradient id="SVGID_12_" gradientUnits="userSpaceOnUse" x1="-1038.9109" y1="794.5004" x2="-1037.9109" y2="794.5004" gradientTransform="matrix(94 0 0 -94 97657.6172 74730.0391)">
			<stop  offset="0" style="stop-color:#ECF3F7"/>
			<stop  offset="1" style="stop-color:#5CA0F2"/>
		</linearGradient>
		<path class="st18" d="M94,47c0,26-21,47-47,47S0,73,0,47S21,0,47,0S94,21,94,47z"/>
		
			<linearGradient id="SVGID_13_" gradientUnits="userSpaceOnUse" x1="-1036.9708" y1="793.8967" x2="-1035.9708" y2="793.8967" gradientTransform="matrix(71.276 0 0 -71.276 73922.4922 56632.7812)">
			<stop  offset="0" style="stop-color:#5CA0F2"/>
			<stop  offset="1" style="stop-color:#ECF3F7"/>
		</linearGradient>
		<path class="st19" d="M82.6,47c0,19.7-16,35.6-35.6,35.6S11.4,66.7,11.4,47s16-35.6,35.6-35.6c0,0,0,0,0,0
			C66.7,11.4,82.6,27.3,82.6,47z"/>
		<path class="st7" d="M52.2,48.9L52.2,48.9c-0.5-0.9-0.5-2,0-3l0,0c0.7-1.2,1.9-1.9,3.3-1.9c3.1,0,6-1.8,7.5-4.6
			c2-4.1,0.6-9-3.3-11.4c-4.1-2.4-9.3-1-11.7,3.1c-1.5,2.6-1.5,5.9,0,8.6c0.7,1.2,0.7,2.6,0,3.7l0,0c-0.5,0.9-1.5,1.5-2.6,1.5h-0.2
			c-1.1,0-2.2-0.6-2.7-1.6c-1.5-2.9-4.6-4.6-7.8-4.5c-4.5,0.3-8.1,4-8.2,8.5c0,4.7,3.8,8.5,8.5,8.6c3.2,0,6.1-1.7,7.6-4.6
			c0.5-1,1.5-1.6,2.6-1.6h0.3c1.1,0,2,0.6,2.6,1.5l0,0c0.5,1,0.5,2.1-0.1,3.1c-1.8,2.8-1.8,6.3,0,9.1c2.4,3.7,7.2,5,11.2,3
			c4.2-2.2,5.8-7.4,3.6-11.5c-1.5-2.9-4.6-4.7-7.8-4.6C53.8,50.5,52.7,49.9,52.2,48.9z"/>
	</g>
	<g transform="translate(591.235 2156.369)">
		
			<linearGradient id="SVGID_14_" gradientUnits="userSpaceOnUse" x1="-647.7749" y1="864.2375" x2="-646.7749" y2="864.2375" gradientTransform="matrix(94 0 0 -94 60890.832 81285.3203)">
			<stop  offset="0" style="stop-color:#EDCEB6"/>
			<stop  offset="0" style="stop-color:#9AE7BE"/>
			<stop  offset="1" style="stop-color:#58D893"/>
		</linearGradient>
		<path class="st20" d="M94,47c0,26-21,47-47,47S0,73,0,47S21,0,47,0S94,21,94,47z"/>
		
			<linearGradient id="SVGID_15_" gradientUnits="userSpaceOnUse" x1="-645.8348" y1="863.6338" x2="-644.8348" y2="863.6338" gradientTransform="matrix(71.276 0 0 -71.276 46043.8867 61603.3594)">
			<stop  offset="0" style="stop-color:#58D893"/>
			<stop  offset="1" style="stop-color:#9AE7BE"/>
			<stop  offset="1" style="stop-color:#EDCEB6"/>
		</linearGradient>
		<path class="st21" d="M82.6,47c0,19.7-16,35.6-35.6,35.6S11.4,66.7,11.4,47s16-35.6,35.6-35.6c0,0,0,0,0,0
			C66.7,11.4,82.6,27.3,82.6,47z"/>
		<g transform="translate(29.872 28.362)">
			<path class="st7" d="M28.7,0H5.8c-1.6,0-3,1.3-3,3c0,1.6,1.3,3,3,3h8.5v28.4c0,1.6,1.3,2.9,2.9,2.9s2.9-1.3,2.9-2.9V5.9h8.5
				c1.6,0,3-1.3,3-3C31.6,1.3,30.3,0,28.7,0L28.7,0z"/>
			<g transform="translate(0 11.953)">
				<path class="st7" d="M17.1,10.4C13.2,10.5,9.3,10,5.5,9C1.9,8,0,6.5,0,4.7c0-2,2.2-3.6,6.5-4.6c0.6-0.1,1.3,0.2,1.4,0.9
					C8,1.5,7.6,2.2,7,2.3c-3.9,1-4.7,2.1-4.7,2.3c0,0.3,0.9,1.3,3.8,2.1c7.2,1.7,14.7,1.7,21.9,0C31,5.9,31.9,5,31.9,4.7
					c0-0.2-0.8-1.3-4.4-2.3c-0.6-0.2-1-0.8-0.9-1.4c0.2-0.6,0.8-1,1.4-0.9c0,0,0,0,0,0c4.1,1,6.2,2.6,6.2,4.6c0,1.8-1.9,3.3-5.5,4.4
					C24.9,10,21,10.5,17.1,10.4L17.1,10.4z"/>
			</g>
		</g>
	</g>
	<g transform="translate(642.78 2744.588)">
		
			<linearGradient id="SVGID_16_" gradientUnits="userSpaceOnUse" x1="-699.3199" y1="276.0185" x2="-698.3199" y2="276.0185" gradientTransform="matrix(94 0 0 -94 65736.0703 25992.7344)">
			<stop  offset="0" style="stop-color:#EDCEB6"/>
			<stop  offset="0" style="stop-color:#FDBEA4"/>
			<stop  offset="1" style="stop-color:#FD9468"/>
		</linearGradient>
		<path class="st22" d="M94,47c0,26-21,47-47,47S0,73,0,47S21,0,47,0S94,21,94,47z"/>
		
			<linearGradient id="SVGID_17_" gradientUnits="userSpaceOnUse" x1="-697.3799" y1="275.4148" x2="-696.3799" y2="275.4148" gradientTransform="matrix(71.276 0 0 -71.276 49717.8086 19677.4609)">
			<stop  offset="0" style="stop-color:#FD9468"/>
			<stop  offset="1" style="stop-color:#FDBEA4"/>
			<stop  offset="1" style="stop-color:#EDCEB6"/>
		</linearGradient>
		<path class="st23" d="M82.6,47c0,19.7-16,35.6-35.6,35.6S11.4,66.7,11.4,47s16-35.6,35.6-35.6c0,0,0,0,0,0
			C66.7,11.4,82.6,27.3,82.6,47z"/>
		<g transform="translate(26.701 26.697)">
			<path class="st7" d="M20.8,9.5l7.1,7.1c0.3,0.3,0.7,0.3,0.9,0c0,0,0,0,0,0l3.7-3.7c0.3-0.3,0.3-0.7,0-0.9c0,0,0,0,0,0L20.8,0.2
				c-0.3-0.3-0.7-0.3-0.9,0c0,0,0,0,0,0L8.1,11.9c-0.3,0.3-0.3,0.7,0,0.9c0,0,0,0,0,0l3.7,3.7c0.3,0.3,0.7,0.3,0.9,0c0,0,0,0,0,0
				l7.1-7.1C20.1,9.2,20.5,9.2,20.8,9.5C20.8,9.5,20.8,9.5,20.8,9.5z"/>
			<path class="st7" d="M3.9,16.1l-3.7,3.7c-0.3,0.3-0.3,0.7,0,0.9c0,0,0,0,0,0l3.7,3.7c0.3,0.3,0.7,0.3,0.9,0c0,0,0,0,0,0l3.7-3.7
				c0.3-0.3,0.3-0.7,0-0.9c0,0,0,0,0,0l-3.7-3.7C4.6,15.9,4.2,15.9,3.9,16.1C3.9,16.1,3.9,16.1,3.9,16.1z"/>
			<path class="st7" d="M20.8,40.4l11.7-11.7c0.3-0.3,0.3-0.7,0-0.9c0,0,0,0,0,0L28.7,24c-0.3-0.3-0.7-0.3-0.9,0c0,0,0,0,0,0
				l-7.1,7.1c-0.3,0.3-0.7,0.3-0.9,0c0,0,0,0,0,0L12.8,24c-0.3-0.3-0.7-0.3-0.9,0l-3.7,3.7c-0.3,0.3-0.3,0.7,0,0.9c0,0,0,0,0,0
				l11.7,11.7C20.1,40.7,20.5,40.7,20.8,40.4z"/>
			<path class="st7" d="M35.8,16.1L32,19.8c-0.3,0.3-0.3,0.7,0,0.9c0,0,0,0,0,0l3.7,3.7c0.3,0.3,0.7,0.3,0.9,0c0,0,0,0,0,0l3.7-3.7
				c0.3-0.3,0.3-0.7,0-0.9c0,0,0,0,0,0l-3.7-3.7C36.4,15.9,36,15.9,35.8,16.1C35.8,16.1,35.8,16.1,35.8,16.1z"/>
			<path class="st7" d="M24.6,19.8L20.8,16c-0.3-0.3-0.7-0.3-0.9,0c0,0,0,0,0,0L16,19.8c-0.3,0.3-0.3,0.7,0,0.9c0,0,0,0,0,0l3.8,3.8
				c0.3,0.3,0.7,0.3,0.9,0c0,0,0,0,0,0l3.8-3.8C24.8,20.5,24.8,20.1,24.6,19.8C24.6,19.8,24.6,19.8,24.6,19.8z"/>
		</g>
	</g>
	<line class="st0" x1="658.4" y1="2510.6" x2="712" y2="2498.5"/>
	<line class="st0" x1="669.6" y1="2241.8" x2="765.6" y2="2361"/>
	<g transform="translate(695.336 2274.619)">
		<ellipse class="st7" cx="5.6" cy="5.6" rx="5.6" ry="5.6"/>
		<ellipse class="st0" cx="5.6" cy="5.6" rx="5.1" ry="5.1"/>
	</g>
	<line class="st0" x1="964.7" y1="2352.9" x2="997" y2="2312.5"/>
	<line class="st0" x1="1029.9" y1="2505.1" x2="1180.5" y2="2499"/>
	<g transform="translate(1125.888 2495.959)">
		<ellipse class="st7" cx="5.6" cy="5.6" rx="5.6" ry="5.6"/>
		<ellipse class="st0" cx="5.6" cy="5.6" rx="5.1" ry="5.1"/>
	</g>
	<line class="st0" x1="935.4" y1="2624.8" x2="956.6" y2="2666.3"/>
	<line class="st0" x1="714" y1="2747.1" x2="796.9" y2="2620.8"/>
	<g transform="translate(734.753 2701.129)">
		<ellipse class="st7" cx="5.6" cy="5.6" rx="5.6" ry="5.6"/>
		<ellipse class="st0" cx="5.6" cy="5.6" rx="5.1" ry="5.1"/>
	</g>
</g>
</svg>
