<svg xmlns="http://www.w3.org/2000/svg" xmlns:xlink="http://www.w3.org/1999/xlink" width="773.17" height="721.625" viewBox="0 0 773.17 721.625"><defs><style>.a,.q{fill:#fff;}.a,.b{stroke:#707070;}.b,.y{fill:none;}.c{fill:url(#a);}.d{fill:url(#b);}.e{fill:#da001a;}.f{fill:url(#c);}.g{fill:url(#f);}.h{fill:url(#g);}.i{fill:#f0f2f5;}.j{fill:url(#h);}.k{fill:url(#i);}.l,.m,.n{fill:#fdffff;}.l{opacity:0.74;}.m{opacity:0.52;}.o{fill:url(#j);}.p{fill:url(#k);}.r{fill:url(#l);}.s{fill:url(#m);}.t{fill:url(#n);}.u{fill:url(#o);}.v{fill:url(#p);}.w{fill:url(#q);}.x{stroke:none;}</style><linearGradient id="a" y1="0.5" x2="1" y2="0.5" gradientUnits="objectBoundingBox"><stop offset="0" stop-color="#848484"/><stop offset="0" stop-color="#4e4e4e"/><stop offset="1"/></linearGradient><linearGradient id="b" y1="0.5" x2="1" y2="0.5" gradientUnits="objectBoundingBox"><stop offset="0"/><stop offset="1" stop-color="#4e4e4e"/><stop offset="1" stop-color="#edceb6"/></linearGradient><linearGradient id="c" y1="0.5" x2="1" y2="0.5" gradientUnits="objectBoundingBox"><stop offset="0" stop-color="#f88325"/><stop offset="1" stop-color="#c42f34"/></linearGradient><linearGradient id="f" y1="0.5" x2="1" y2="0.5" gradientUnits="objectBoundingBox"><stop offset="0" stop-color="#edceb6"/><stop offset="1" stop-color="#e7a977"/></linearGradient><linearGradient id="g" y1="0.5" x2="1" y2="0.5" gradientUnits="objectBoundingBox"><stop offset="0" stop-color="#e7a977"/><stop offset="1" stop-color="#edceb6"/></linearGradient><linearGradient id="h" y1="0.5" x2="1" y2="0.5" gradientUnits="objectBoundingBox"><stop offset="0" stop-color="#808efd"/><stop offset="1" stop-color="#cbd1fe"/></linearGradient><linearGradient id="i" y1="0.5" x2="1" y2="0.5" gradientUnits="objectBoundingBox"><stop offset="0" stop-color="#cbd1fe"/><stop offset="1" stop-color="#808efd"/></linearGradient><linearGradient id="j" y1="0.5" x2="1" y2="0.5" gradientUnits="objectBoundingBox"><stop offset="0" stop-color="#e4e4e4"/><stop offset="1" stop-color="#7f8c8d"/></linearGradient><linearGradient id="k" y1="0.5" x2="1" y2="0.5" gradientUnits="objectBoundingBox"><stop offset="0" stop-color="#7f8c8d"/><stop offset="1" stop-color="#d9d8d8"/></linearGradient><linearGradient id="l" y1="0.5" x2="1" y2="0.5" gradientUnits="objectBoundingBox"><stop offset="0" stop-color="#ecf3f7"/><stop offset="1" stop-color="#5ca0f2"/></linearGradient><linearGradient id="m" y1="0.5" x2="1" y2="0.5" gradientUnits="objectBoundingBox"><stop offset="0" stop-color="#5ca0f2"/><stop offset="1" stop-color="#ecf3f7"/></linearGradient><linearGradient id="n" y1="0.5" x2="1" y2="0.5" gradientUnits="objectBoundingBox"><stop offset="0" stop-color="#edceb6"/><stop offset="0" stop-color="#9ae7be"/><stop offset="1" stop-color="#58d893"/></linearGradient><linearGradient id="o" y1="0.5" x2="1" y2="0.5" gradientUnits="objectBoundingBox"><stop offset="0" stop-color="#58d893"/><stop offset="1" stop-color="#9ae7be"/><stop offset="1" stop-color="#edceb6"/></linearGradient><linearGradient id="p" y1="0.5" x2="1" y2="0.5" gradientUnits="objectBoundingBox"><stop offset="0" stop-color="#edceb6"/><stop offset="0" stop-color="#fdbea4"/><stop offset="1" stop-color="#fd9468"/></linearGradient><linearGradient id="q" y1="0.5" x2="1" y2="0.5" gradientUnits="objectBoundingBox"><stop offset="0" stop-color="#fd9468"/><stop offset="1" stop-color="#fdbea4"/><stop offset="1" stop-color="#edceb6"/></linearGradient></defs><g transform="translate(-509.375 -2121)"><path class="a" d="M1668.634,477.14c0,198.028-161.531,358.545-360.772,358.545-199.265,0-360.794-160.517-360.794-358.545s161.53-358.545,360.794-358.545C1507.1,118.595,1668.634,279.125,1668.634,477.14Z" transform="translate(-437.193 2002.905)"/><path class="b" d="M1265.313,276.731c0,87.34-71.243,158.136-159.117,158.136s-159.127-70.8-159.127-158.136S1018.31,118.595,1106.2,118.595,1265.313,189.4,1265.313,276.731Z" transform="translate(-235.561 2203.526)"/><g transform="translate(735.763 2346.378)"><g transform="translate(0 0)"><path class="c" d="M1215.589,252.023c0,73.694-60.112,133.428-134.256,133.428S947.068,325.717,947.068,252.023s60.111-133.428,134.265-133.428S1215.589,178.334,1215.589,252.023Z" transform="translate(-947.068 -118.595)"/><path class="d" d="M1143.6,219.31c0,51.954-42.508,94.074-94.94,94.074s-94.951-42.121-94.951-94.074,42.51-94.071,94.951-94.071S1143.6,167.355,1143.6,219.31Z" transform="translate(-914.397 -85.884)"/></g><g transform="translate(78.526 82.121)"><g transform="translate(0 5.173)"><path class="e" d="M167.943,187.1h15.416L158.61,228.889,134.038,187.1h14.851l-46.5-20.264,56.22,97.441,55.25-96.154ZM158.6,252.5l-40.2-69.667,9.533,5.483,30.661,52.135,32.576-55,8.2-3.909Z" transform="translate(-102.39 -166.839)"/></g><g transform="translate(9.146)"><path class="f" d="M147.082,273.731l5.943,8.824a46.894,46.894,0,0,1-32.352-54.126l5,7.423c-.026.611-.042,1.222-.042,1.844A41.032,41.032,0,0,0,147.082,273.731Z" transform="translate(-119.75 -190.81)"/><path class="f" d="M205.114,169.964a40.9,40.9,0,0,0-46.392.3l-6.232-2.655a46.751,46.751,0,0,1,58.878-.311Z" transform="translate(-135.242 -157.02)"/><path class="f" d="M266.567,237.295a46.965,46.965,0,0,1-34.707,45.27l5.605-8.324a41.063,41.063,0,0,0,23.222-36.946c0-.8-.026-1.6-.074-2.387l4.936-7.328A46.862,46.862,0,0,1,266.567,237.295Z" transform="translate(-172.798 -190.407)"/></g></g></g><path class="b" d="M1472.7,379.78c0,144.255-117.669,261.185-262.807,261.185-145.155,0-262.823-116.93-262.823-261.185s117.667-261.185,262.823-261.185C1355.029,118.595,1472.7,235.534,1472.7,379.78Z" transform="translate(-340.166 2099.931)"/><g class="a" transform="translate(555.861 2462.607)"><ellipse class="x" cx="51.04" cy="51.04" rx="51.04" ry="51.04"/><ellipse class="y" cx="51.04" cy="51.04" rx="50.54" ry="50.54"/></g><g class="a" transform="translate(978.329 2222.063)"><ellipse class="x" cx="51.04" cy="51.04" rx="51.04" ry="51.04"/><ellipse class="y" cx="51.04" cy="51.04" rx="50.54" ry="50.54"/></g><g class="a" transform="translate(927.794 2660.701)"><ellipse class="x" cx="51.04" cy="51.04" rx="51.04" ry="51.04"/><ellipse class="y" cx="51.04" cy="51.04" rx="50.54" ry="50.54"/></g><g class="a" transform="translate(587.193 2152.326)"><ellipse class="x" cx="51.04" cy="51.04" rx="51.04" ry="51.04"/><ellipse class="y" cx="51.04" cy="51.04" rx="50.54" ry="50.54"/></g><g class="a" transform="translate(638.738 2740.545)"><ellipse class="x" cx="51.04" cy="51.04" rx="51.04" ry="51.04"/><ellipse class="y" cx="51.04" cy="51.04" rx="50.54" ry="50.54"/></g><g class="a" transform="translate(1180.466 2439.361)"><ellipse class="x" cx="51.04" cy="51.04" rx="51.04" ry="51.04"/><ellipse class="y" cx="51.04" cy="51.04" rx="50.54" ry="50.54"/></g><g transform="translate(559.904 2466.649)"><path class="g" d="M1041.062,165.592a47,47,0,1,1-47-47A47,47,0,0,1,1041.062,165.592Z" transform="translate(-947.068 -118.595)"/><path class="h" d="M1024.989,160.877a35.638,35.638,0,1,1-35.637-35.638A35.639,35.639,0,0,1,1024.989,160.877Z" transform="translate(-942.354 -113.88)"/><path class="i" d="M998.223,159.015a9.535,9.535,0,0,0-5.1-3.294,8.611,8.611,0,0,0,5.1-7.878,8.228,8.228,0,0,0-1.115-4.248,9.336,9.336,0,0,0-2.786-3.035,9.436,9.436,0,0,0-3.79-1.5c-.607-.1-1.356-.183-2.231-.241v-6.4h-4.807V138.7h-4V132.42h-4.809V138.7h-9.109v6.043h4.009v24.227h-4.009v6.043h9.109V180.5H979.5v-5.484h2.452c.54,0,1.051-.007,1.545-.012v5.5H988.3v-5.59c1.132-.038,1.975-.084,2.491-.142a10.384,10.384,0,0,0,4.917-1.72,9.7,9.7,0,0,0,3.146-3.741,10.776,10.776,0,0,0,1.152-4.818A8.749,8.749,0,0,0,998.223,159.015ZM987.4,144.869a4.214,4.214,0,0,1,2.763,1.275,4,4,0,0,1,.928,2.737,3.832,3.832,0,0,1-1.077,2.836,4.861,4.861,0,0,1-2.961,1.3q-1.039.126-5.324.125h-4.807v-8.4h4.211Q986.308,144.745,987.4,144.869Zm4,22.356a4.54,4.54,0,0,1-2.663,1.448,33.066,33.066,0,0,1-5.026.224h-6.789v-9.711h5.92a24.921,24.921,0,0,1,6.5.52,4.482,4.482,0,0,1,2.289,1.66,4.738,4.738,0,0,1,.793,2.775A4.46,4.46,0,0,1,991.4,167.226Z" transform="translate(-933.933 -108.785)"/></g><g transform="translate(931.836 2664.744)"><path class="j" d="M1105.384,209.146a47,47,0,1,1-47-47A47,47,0,0,1,1105.384,209.146Z" transform="translate(-1011.39 -162.149)"/><ellipse class="k" cx="35.639" cy="35.639" rx="35.639" ry="35.639" transform="translate(11.358 11.358)"/><g transform="translate(32.237 19.559)"><path class="l" d="M1045.007,195.911v21.167l-14.76-27.439Z" transform="translate(-1030.246 -162.201)"/><path class="m" d="M1053.64,189.639l-14.76,27.439V195.911Z" transform="translate(-1024.12 -162.201)"/><path class="m" d="M1045.007,173.59V207.3l-14.76-6.271Z" transform="translate(-1030.246 -173.59)"/><path class="n" d="M1053.64,201.028l-14.76,6.271V173.59Z" transform="translate(-1024.12 -173.59)"/></g></g><g transform="translate(1184.509 2443.404)"><path class="o" d="M1041.062,165.592a47,47,0,1,1-47-47A47,47,0,0,1,1041.062,165.592Z" transform="translate(-947.068 -118.595)"/><path class="p" d="M1024.989,160.877a35.638,35.638,0,1,1-35.637-35.638A35.639,35.639,0,0,1,1024.989,160.877Z" transform="translate(-942.353 -113.881)"/><g transform="translate(30.995 28.718)"><path class="q" d="M113.768,141.059h31.154v-7.316H124.864L128,126.427h13.266v-7.316H131.135l3.958-9.236-6.725-2.883-5.193,12.119H112v7.316h8.039Zm0,0" transform="translate(-112 -106.992)"/></g></g><g transform="translate(982.371 2226.106)"><path class="r" d="M1041.062,165.592a47,47,0,1,1-47-47A47,47,0,0,1,1041.062,165.592Z" transform="translate(-947.068 -118.595)"/><path class="s" d="M1024.989,160.877a35.638,35.638,0,1,1-35.637-35.638A35.639,35.639,0,0,1,1024.989,160.877Z" transform="translate(-942.353 -113.88)"/><path class="q" d="M125.906,132.9h0a2.972,2.972,0,0,1,0-2.961l.028-.049a3.763,3.763,0,0,1,3.262-1.861,8.524,8.524,0,0,0,7.5-4.551,8.73,8.73,0,0,0-3.259-11.355,8.531,8.531,0,0,0-11.677,11.64,3.738,3.738,0,0,1,.017,3.736h0a3.036,3.036,0,0,1-2.631,1.521h-.16a3.074,3.074,0,0,1-2.7-1.643,8.527,8.527,0,0,0-7.838-4.486,8.73,8.73,0,0,0-8.208,8.5,8.531,8.531,0,0,0,16.078,4.005,2.957,2.957,0,0,1,2.612-1.583h.257a2.949,2.949,0,0,1,2.559,1.483h0a2.97,2.97,0,0,1-.082,3.066,8.527,8.527,0,0,0-.014,9.093,8.789,8.789,0,0,0,11.2,3.014,8.532,8.532,0,0,0-4.258-16.077A2.986,2.986,0,0,1,125.906,132.9Z" transform="translate(-73.737 -83.955)"/></g><g transform="translate(591.235 2156.369)"><path class="t" d="M1041.062,165.592a47,47,0,1,1-47-47A47,47,0,0,1,1041.062,165.592Z" transform="translate(-947.068 -118.595)"/><path class="u" d="M1024.989,160.877a35.638,35.638,0,1,1-35.636-35.638A35.639,35.639,0,0,1,1024.989,160.877Z" transform="translate(-942.353 -113.88)"/><g transform="translate(29.872 28.362)"><path class="q" d="M188.127,133.967h-22.9a2.963,2.963,0,0,0,0,5.926h8.505v28.381a2.944,2.944,0,1,0,5.888,0V139.893h8.505a2.963,2.963,0,0,0,0-5.926Z" transform="translate(-159.469 -133.966)"/><g transform="translate(0 11.953)"><path class="q" d="M160.977,222.657a43.831,43.831,0,0,1-11.6-1.388c-3.666-1.053-5.524-2.525-5.524-4.374,0-1.98,2.231-3.578,6.452-4.621a1.18,1.18,0,0,1,.566,2.291c-3.868.956-4.658,2.081-4.658,2.33,0,.329.933,1.278,3.816,2.106a46.9,46.9,0,0,0,21.9,0c2.884-.829,3.816-1.777,3.816-2.106,0-.24-.755-1.331-4.45-2.278a1.18,1.18,0,1,1,.586-2.286c4.071,1.043,6.223,2.622,6.223,4.564,0,1.849-1.859,3.321-5.524,4.374a43.837,43.837,0,0,1-11.6,1.388Z" transform="translate(-143.851 -212.239)"/></g></g></g><g transform="translate(642.78 2744.588)"><path class="v" d="M1041.062,165.592a47,47,0,1,1-47-47A47,47,0,0,1,1041.062,165.592Z" transform="translate(-947.068 -118.595)"/><path class="w" d="M1024.989,160.877a35.638,35.638,0,1,1-35.636-35.638A35.639,35.639,0,0,1,1024.989,160.877Z" transform="translate(-942.353 -113.88)"/><g transform="translate(26.701 26.697)"><path class="q" d="M190.57,137.027l7.071,7.072a.651.651,0,0,0,.921,0l3.727-3.728a.651.651,0,0,0,0-.921L190.57,127.729a.651.651,0,0,0-.921,0l-11.715,11.717a.651.651,0,0,0,0,.921l3.727,3.728a.651.651,0,0,0,.921,0l7.067-7.068A.651.651,0,0,1,190.57,137.027Z" transform="translate(-169.813 -127.539)"/><path class="q" d="M131.479,228.476l-3.727,3.728a.651.651,0,0,0,0,.921l3.727,3.728a.651.651,0,0,0,.921,0l3.727-3.728a.651.651,0,0,0,0-.921l-3.727-3.728A.651.651,0,0,0,131.479,228.476Z" transform="translate(-127.561 -212.365)"/><path class="q" d="M190.538,295.015l11.721-11.724a.651.651,0,0,0,0-.921l-3.729-3.726a.651.651,0,0,0-.921,0l-7.071,7.072a.651.651,0,0,1-.921,0l-7.067-7.069a.651.651,0,0,0-.92,0L177.9,282.37a.651.651,0,0,0,0,.921l11.721,11.723A.651.651,0,0,0,190.538,295.015Z" transform="translate(-169.781 -254.605)"/><path class="q" d="M332.944,228.49l-3.727,3.728a.651.651,0,0,0,0,.921l3.727,3.728a.651.651,0,0,0,.921,0l3.727-3.728a.651.651,0,0,0,0-.921l-3.727-3.728A.651.651,0,0,0,332.944,228.49Z" transform="translate(-297.19 -212.377)"/><path class="q" d="M236.552,231.83l-3.8-3.8a.651.651,0,0,0-.921,0l-3.8,3.8a.651.651,0,0,0,0,.921l3.8,3.8a.651.651,0,0,0,.921,0l3.8-3.8A.651.651,0,0,0,236.552,231.83Z" transform="translate(-211.998 -211.99)"/></g></g><line class="b" y1="12.128" x2="53.566" transform="translate(658.446 2498.486)"/><line class="b" x2="96.015" y2="119.261" transform="translate(669.564 2241.771)"/><g class="a" transform="translate(695.336 2274.619)"><ellipse class="x" cx="5.559" cy="5.559" rx="5.559" ry="5.559"/><ellipse class="y" cx="5.559" cy="5.559" rx="5.059" ry="5.059"/></g><line class="b" y1="40.427" x2="32.342" transform="translate(964.684 2312.52)"/><line class="b" y1="6.064" x2="150.592" transform="translate(1029.873 2498.991)"/><g class="a" transform="translate(1125.888 2495.959)"><ellipse class="x" cx="5.559" cy="5.559" rx="5.559" ry="5.559"/><ellipse class="y" cx="5.559" cy="5.559" rx="5.059" ry="5.059"/></g><line class="b" x2="21.224" y2="41.438" transform="translate(935.374 2624.822)"/><line class="b" y1="126.336" x2="82.876" transform="translate(714.034 2620.779)"/><g class="a" transform="translate(734.753 2701.129)"><ellipse class="x" cx="5.559" cy="5.559" rx="5.559" ry="5.559"/><ellipse class="y" cx="5.559" cy="5.559" rx="5.059" ry="5.059"/></g></g></svg>