<svg xmlns="http://www.w3.org/2000/svg" xmlns:xlink="http://www.w3.org/1999/xlink" width="633" height="674" viewBox="0 0 633 674"><defs><style>.a{opacity:0.61;}.b,.e,.g{fill:#fff;}.b,.c{stroke:rgba(112,112,112,0.3);}.c,.f{fill:none;}.d,.i{fill:#333;}.e{stroke:rgba(51,51,51,0.3);}.h{fill:#f3f3f3;}.h,.i,.j{opacity:0.59;}.j,.k{fill:#cfcfcf;}.l{opacity:0.79;}.m{stroke:none;}.n{filter:url(#k);}.o{filter:url(#i);}.p{filter:url(#g);}.q{filter:url(#e);}.r{filter:url(#c);}.s{filter:url(#a);}</style><filter id="a" x="60" y="0" width="573" height="602" filterUnits="userSpaceOnUse"><feOffset dx="4" dy="4" input="SourceAlpha"/><feGaussianBlur stdDeviation="12.5" result="b"/><feFlood flood-opacity="0.122"/><feComposite operator="in" in2="b"/><feComposite in="SourceGraphic"/></filter><filter id="c" x="93.5" y="33.5" width="280" height="106" filterUnits="userSpaceOnUse"><feOffset input="SourceAlpha"/><feGaussianBlur stdDeviation="10" result="d"/><feFlood flood-opacity="0.2"/><feComposite operator="in" in2="d"/><feComposite in="SourceGraphic"/></filter><filter id="e" x="30" y="36" width="573" height="602" filterUnits="userSpaceOnUse"><feOffset dx="4" dy="4" input="SourceAlpha"/><feGaussianBlur stdDeviation="12.5" result="f"/><feFlood flood-opacity="0.122"/><feComposite operator="in" in2="f"/><feComposite in="SourceGraphic"/></filter><filter id="g" x="63.5" y="69.5" width="280" height="106" filterUnits="userSpaceOnUse"><feOffset input="SourceAlpha"/><feGaussianBlur stdDeviation="10" result="h"/><feFlood flood-opacity="0.2"/><feComposite operator="in" in2="h"/><feComposite in="SourceGraphic"/></filter><filter id="i" x="0" y="72" width="573" height="602" filterUnits="userSpaceOnUse"><feOffset dx="4" dy="4" input="SourceAlpha"/><feGaussianBlur stdDeviation="12.5" result="j"/><feFlood flood-opacity="0.122"/><feComposite operator="in" in2="j"/><feComposite in="SourceGraphic"/></filter><filter id="k" x="33.5" y="105.5" width="280" height="106" filterUnits="userSpaceOnUse"><feOffset input="SourceAlpha"/><feGaussianBlur stdDeviation="10" result="l"/><feFlood flood-opacity="0.2"/><feComposite operator="in" in2="l"/><feComposite in="SourceGraphic"/></filter></defs><g transform="translate(-1057.5 -231.5)"><g class="a" transform="translate(57 -47)"><g class="s" transform="matrix(1, 0, 0, 1, 1000.5, 278.5)"><g class="b" transform="translate(93.5 33.5)"><rect class="m" width="498" height="527" rx="20"/><rect class="f" x="0.5" y="0.5" width="497" height="526" rx="19.5"/></g></g><g class="b" transform="translate(1124 410)"><rect class="m" width="439" height="233" rx="20"/><rect class="f" x="0.5" y="0.5" width="438" height="232" rx="19.5"/></g><line class="c" x2="438.491" transform="translate(1124.17 526.584)"/><g transform="translate(1460.524 485.659)"><rect class="d" width="87" height="28" rx="10" transform="translate(0.477 0.341)"/></g><g transform="translate(1460.524 600.897)"><rect class="d" width="87" height="28" rx="10" transform="translate(0.477 0.103)"/></g><g transform="translate(1123.61 738.544)"><rect class="d" width="439" height="45" rx="10" transform="translate(0.39 0.456)"/></g><g class="e" transform="translate(1124 665)"><rect class="m" width="438" height="46" rx="10"/><rect class="f" x="0.5" y="0.5" width="437" height="45" rx="9.5"/></g><g class="e" transform="translate(1124 342)"><rect class="m" width="438" height="46" rx="10"/><rect class="f" x="0.5" y="0.5" width="437" height="45" rx="9.5"/></g><g transform="translate(1323.677 506.466)"><circle class="d" cx="20" cy="20" r="20" transform="translate(0.323 -0.466)"/><g transform="translate(9.603 9.839)"><g transform="translate(0 0)"><rect class="f" width="21.607" height="20.335"/></g><g transform="translate(1.934 2.379)"><path class="g" d="M13.526,17.748a.878.878,0,0,0,.088-1.153.849.849,0,0,0-1.318-.085l-2.021,1.965V6.854a.879.879,0,0,0-1.758,0v11.62L6.495,16.509a.849.849,0,0,0-1.318.085.878.878,0,0,0,.088,1.153L8.78,21.123a.851.851,0,0,0,1.23,0Z" transform="translate(-5.001 -5.993)"/><path class="g" d="M23.264,9.622a.878.878,0,0,0-.088,1.153.849.849,0,0,0,1.318.085L26.516,8.9v11.62a.879.879,0,0,0,1.758,0V8.9L30.3,10.861a.849.849,0,0,0,1.318-.085.878.878,0,0,0-.088-1.153L28.01,6.247a.851.851,0,0,0-1.23,0Z" transform="translate(-15.091 -5.985)"/></g></g></g><g class="r" transform="matrix(1, 0, 0, 1, 1000.5, 278.5)"><rect class="d" width="220" height="46" rx="10" transform="translate(123.5 63.5)"/></g><rect class="h" width="117" height="7" rx="3.5" transform="translate(1174 362)"/><rect class="i" width="117" height="7" rx="3.5" transform="translate(1402 362)"/><rect class="j" width="60" height="7" rx="3.5" transform="translate(1142 436)"/><rect class="k" width="40" height="9" rx="4.5" transform="translate(1142 486)"/><rect class="h" width="29" height="4" rx="2" transform="translate(1489 498)"/><rect class="j" width="60" height="7" rx="3.5" transform="translate(1142 558)"/><rect class="k" width="40" height="10" rx="5" transform="translate(1142 607)"/><rect class="h" width="29" height="4" rx="2" transform="translate(1489 613)"/><rect class="k" width="86" height="7" rx="3.5" transform="translate(1142 682)"/><rect class="h" width="150" height="4" rx="2" transform="translate(1269 759)"/></g><g class="l" transform="translate(27 -11)"><g class="q" transform="matrix(1, 0, 0, 1, 1030.5, 242.5)"><g class="b" transform="translate(63.5 69.5)"><rect class="m" width="498" height="527" rx="20"/><rect class="f" x="0.5" y="0.5" width="497" height="526" rx="19.5"/></g></g><g class="b" transform="translate(1124 410)"><rect class="m" width="439" height="233" rx="20"/><rect class="f" x="0.5" y="0.5" width="438" height="232" rx="19.5"/></g><line class="c" x2="438.491" transform="translate(1124.17 526.584)"/><g transform="translate(1460.524 485.659)"><rect class="d" width="87" height="28" rx="10" transform="translate(0.477 0.341)"/></g><g transform="translate(1460.524 600.897)"><rect class="d" width="87" height="28" rx="10" transform="translate(0.477 0.103)"/></g><g transform="translate(1123.61 738.544)"><rect class="d" width="439" height="45" rx="10" transform="translate(0.39 0.456)"/></g><g class="e" transform="translate(1124 665)"><rect class="m" width="438" height="46" rx="10"/><rect class="f" x="0.5" y="0.5" width="437" height="45" rx="9.5"/></g><g class="e" transform="translate(1124 342)"><rect class="m" width="438" height="46" rx="10"/><rect class="f" x="0.5" y="0.5" width="437" height="45" rx="9.5"/></g><g transform="translate(1323.677 506.466)"><circle class="d" cx="20" cy="20" r="20" transform="translate(0.323 -0.466)"/><g transform="translate(9.603 9.839)"><g transform="translate(0 0)"><rect class="f" width="21.607" height="20.335"/></g><g transform="translate(1.934 2.379)"><path class="g" d="M13.526,17.748a.878.878,0,0,0,.088-1.153.849.849,0,0,0-1.318-.085l-2.021,1.965V6.854a.879.879,0,0,0-1.758,0v11.62L6.495,16.509a.849.849,0,0,0-1.318.085.878.878,0,0,0,.088,1.153L8.78,21.123a.851.851,0,0,0,1.23,0Z" transform="translate(-5.001 -5.993)"/><path class="g" d="M23.264,9.622a.878.878,0,0,0-.088,1.153.849.849,0,0,0,1.318.085L26.516,8.9v11.62a.879.879,0,0,0,1.758,0V8.9L30.3,10.861a.849.849,0,0,0,1.318-.085.878.878,0,0,0-.088-1.153L28.01,6.247a.851.851,0,0,0-1.23,0Z" transform="translate(-15.091 -5.985)"/></g></g></g><g class="p" transform="matrix(1, 0, 0, 1, 1030.5, 242.5)"><rect class="d" width="220" height="46" rx="10" transform="translate(93.5 99.5)"/></g><rect class="h" width="117" height="7" rx="3.5" transform="translate(1174 362)"/><rect class="i" width="117" height="7" rx="3.5" transform="translate(1402 362)"/><rect class="j" width="60" height="7" rx="3.5" transform="translate(1142 436)"/><rect class="k" width="40" height="9" rx="4.5" transform="translate(1142 486)"/><rect class="h" width="29" height="4" rx="2" transform="translate(1489 498)"/><rect class="j" width="60" height="7" rx="3.5" transform="translate(1142 558)"/><rect class="k" width="40" height="10" rx="5" transform="translate(1142 607)"/><rect class="h" width="29" height="4" rx="2" transform="translate(1489 613)"/><rect class="k" width="86" height="7" rx="3.5" transform="translate(1142 682)"/><rect class="h" width="150" height="4" rx="2" transform="translate(1269 759)"/></g><g transform="translate(-3 25)"><g class="o" transform="matrix(1, 0, 0, 1, 1060.5, 206.5)"><g class="b" transform="translate(33.5 105.5)"><rect class="m" width="498" height="527" rx="20"/><rect class="f" x="0.5" y="0.5" width="497" height="526" rx="19.5"/></g></g><g class="b" transform="translate(1124 410)"><rect class="m" width="439" height="233" rx="20"/><rect class="f" x="0.5" y="0.5" width="438" height="232" rx="19.5"/></g><line class="c" x2="438.491" transform="translate(1124.17 526.584)"/><g transform="translate(1460.524 485.659)"><rect class="d" width="87" height="28" rx="10" transform="translate(0.477 0.341)"/></g><g transform="translate(1460.524 600.897)"><rect class="d" width="87" height="28" rx="10" transform="translate(0.477 0.103)"/></g><g transform="translate(1123.61 738.544)"><rect class="d" width="439" height="45" rx="10" transform="translate(0.39 0.456)"/></g><g class="e" transform="translate(1124 665)"><rect class="m" width="438" height="46" rx="10"/><rect class="f" x="0.5" y="0.5" width="437" height="45" rx="9.5"/></g><g class="e" transform="translate(1124 342)"><rect class="m" width="438" height="46" rx="10"/><rect class="f" x="0.5" y="0.5" width="437" height="45" rx="9.5"/></g><g transform="translate(1323.677 506.466)"><circle class="d" cx="20" cy="20" r="20" transform="translate(0.323 -0.466)"/><g transform="translate(9.603 9.839)"><g transform="translate(0 0)"><rect class="f" width="21.607" height="20.335"/></g><g transform="translate(1.934 2.379)"><path class="g" d="M13.526,17.748a.878.878,0,0,0,.088-1.153.849.849,0,0,0-1.318-.085l-2.021,1.965V6.854a.879.879,0,0,0-1.758,0v11.62L6.495,16.509a.849.849,0,0,0-1.318.085.878.878,0,0,0,.088,1.153L8.78,21.123a.851.851,0,0,0,1.23,0Z" transform="translate(-5.001 -5.993)"/><path class="g" d="M23.264,9.622a.878.878,0,0,0-.088,1.153.849.849,0,0,0,1.318.085L26.516,8.9v11.62a.879.879,0,0,0,1.758,0V8.9L30.3,10.861a.849.849,0,0,0,1.318-.085.878.878,0,0,0-.088-1.153L28.01,6.247a.851.851,0,0,0-1.23,0Z" transform="translate(-15.091 -5.985)"/></g></g></g><g class="n" transform="matrix(1, 0, 0, 1, 1060.5, 206.5)"><rect class="d" width="220" height="46" rx="10" transform="translate(63.5 135.5)"/></g><rect class="h" width="117" height="7" rx="3.5" transform="translate(1174 362)"/><rect class="i" width="117" height="7" rx="3.5" transform="translate(1402 362)"/><rect class="j" width="60" height="7" rx="3.5" transform="translate(1142 436)"/><rect class="k" width="40" height="9" rx="4.5" transform="translate(1142 486)"/><rect class="h" width="29" height="4" rx="2" transform="translate(1489 498)"/><rect class="j" width="60" height="7" rx="3.5" transform="translate(1142 558)"/><rect class="k" width="40" height="10" rx="5" transform="translate(1142 607)"/><rect class="h" width="29" height="4" rx="2" transform="translate(1489 613)"/><rect class="k" width="86" height="7" rx="3.5" transform="translate(1142 682)"/><rect class="h" width="150" height="4" rx="2" transform="translate(1269 759)"/></g></g></svg>